<?xml version="1.0" standalone="no"?><svg xmlns="http://www.w3.org/2000/svg" viewBox="0 0 1440 320"><path fill="#223d98" fill-opacity="1" d="M0,128L24,112C48,96,96,64,144,80C192,96,240,160,288,165.3C336,171,384,117,432,96C480,75,528,85,576,90.7C624,96,672,96,720,80C768,64,816,32,864,26.7C912,21,960,43,1008,90.7C1056,139,1104,213,1152,208C1200,203,1248,117,1296,117.3C1344,117,1392,203,1416,245.3L1440,288L1440,0L1416,0C1392,0,1344,0,1296,0C1248,0,1200,0,1152,0C1104,0,1056,0,1008,0C960,0,912,0,864,0C816,0,768,0,720,0C672,0,624,0,576,0C528,0,480,0,432,0C384,0,336,0,288,0C240,0,192,0,144,0C96,0,48,0,24,0L0,0Z"></path></svg>